<?xml version="1.0" encoding="UTF-8" standalone="no" ?>
<!DOCTYPE svg PUBLIC "-//W3C//DTD SVG 1.1//EN" "http://www.w3.org/Graphics/SVG/1.1/DTD/svg11.dtd">
<svg xmlns="http://www.w3.org/2000/svg" xmlns:xlink="http://www.w3.org/1999/xlink" version="1.1" width="1080" height="1080" viewBox="0 0 1080 1080" xml:space="preserve">
<desc>Created with Fabric.js 5.2.4</desc>
<defs>
</defs>
<g transform="matrix(1 0 0 1 540 540)" id="5d06d7e8-696d-4f83-92d0-e16ac04b8a61"  >
<rect style="stroke: none; stroke-width: 1; stroke-dasharray: none; stroke-linecap: butt; stroke-dashoffset: 0; stroke-linejoin: miter; stroke-miterlimit: 4; fill: rgb(255,255,255); fill-rule: nonzero; opacity: 1; visibility: hidden;" vector-effect="non-scaling-stroke"  x="-540" y="-540" rx="0" ry="0" width="1080" height="1080" />
</g>
<g transform="matrix(1 0 0 1 540 540)" id="75d9bfd5-aea7-4c11-92e3-113bb9dbd92f"  >
</g>
<g transform="matrix(1 0 0 1 540 540)"  >
<g style="" vector-effect="non-scaling-stroke"   >
		<g transform="matrix(1 0 0 1 0 -0.02)"  >
<rect style="stroke: none; stroke-width: 1; stroke-dasharray: none; stroke-linecap: butt; stroke-dashoffset: 0; stroke-linejoin: miter; stroke-miterlimit: 4; fill: rgb(254,249,247); fill-rule: nonzero; opacity: 1; visibility: hidden;" vector-effect="non-scaling-stroke"  x="-540" y="-540" rx="0" ry="0" width="1080" height="1080" />
</g>
		<g transform="matrix(5.4 0 0 5.4 0 0)"  >
<path style="stroke: none; stroke-width: 1; stroke-dasharray: none; stroke-linecap: butt; stroke-dashoffset: 0; stroke-linejoin: miter; stroke-miterlimit: 4; fill: rgb(254,249,247); fill-rule: nonzero; opacity: 1;" vector-effect="non-scaling-stroke"  transform=" translate(-100, -100.56)" d="M 139.374493 198.087515 C 155.702187 206.99353 190.724846 197.001323 197.677982 159.049528 C 204.827153 120.027728 184.496324 118.997566 188.045232 104.801934 C 202.287755 83.6528313 204.827153 56.662651 190.073179 40.4146034 C 153.570125 2.39058926 144.444362 48.0194062 114.025151 20.1351292 C 101.727304 7.83728238 83.0989526 -6.73517414 56.2286492 3.40456297 C 18.2385839 17.7404371 27.3303985 47.659333 27.3303985 69.3128542 C 27.3303985 76.9370868 3.11408002 91.2696589 0.460095291 110.885776 C -2.88628833 135.619549 12.6277797 168.175291 27.3303985 179.329002 C 50.6517938 205.692318 86.6478605 199.608476 102.87144 190.482713 C 116.802125 182.646702 128.220783 192.003673 139.374493 198.087515 Z" stroke-linecap="round" />
</g>
</g>
</g>
<g transform="matrix(NaN NaN NaN NaN 0 0)"  >
<g style=""   >
</g>
</g>
</svg>