<?xml version="1.0" encoding="UTF-8" standalone="no" ?>
<!DOCTYPE svg PUBLIC "-//W3C//DTD SVG 1.1//EN" "http://www.w3.org/Graphics/SVG/1.1/DTD/svg11.dtd">
<svg xmlns="http://www.w3.org/2000/svg" xmlns:xlink="http://www.w3.org/1999/xlink" version="1.1" width="1080" height="1080" viewBox="0 0 1080 1080" xml:space="preserve">
<desc>Created with Fabric.js 5.2.4</desc>
<defs>
</defs>
<g transform="matrix(1 0 0 1 540 540)" id="fecd2f1a-c6b2-42d0-922b-c21756fc4975"  >
</g>
<g transform="matrix(1 0 0 1 540 540)" id="6be6563a-e8bb-4129-b68a-94d1442825d2"  >
<rect style="stroke: none; stroke-width: 1; stroke-dasharray: none; stroke-linecap: butt; stroke-dashoffset: 0; stroke-linejoin: miter; stroke-miterlimit: 4; fill: rgb(255,255,255); fill-rule: nonzero; opacity: 1; visibility: hidden;" vector-effect="non-scaling-stroke"  x="-540" y="-540" rx="0" ry="0" width="1080" height="1080" />
</g>
<g transform="matrix(1.36 0 0 4.32 455.01 608.81)"  >
<path style="stroke: rgb(246,246,246); stroke-width: 0; stroke-dasharray: none; stroke-linecap: butt; stroke-dashoffset: 0; stroke-linejoin: miter; stroke-miterlimit: 4; fill: rgb(246,246,246); fill-rule: nonzero; opacity: 1;" vector-effect="non-scaling-stroke"  transform=" translate(-720, -103.44)" d="M 0 128 L 80 144 C 160 160 320 192 480 202.7 C 640 213 800 203 960 186.7 C 1120 171 1280 149 1360 138.7 L 1440 128 L 1440 0 L 1360 0 C 1280 0 1120 0 960 0 C 800 0 640 0 480 0 C 320 0 160 0 80 0 L 0 0 Z" stroke-linecap="round" />
</g>
</svg>