<?xml version="1.0" encoding="UTF-8" standalone="no" ?>
<!DOCTYPE svg PUBLIC "-//W3C//DTD SVG 1.1//EN" "http://www.w3.org/Graphics/SVG/1.1/DTD/svg11.dtd">
<svg xmlns="http://www.w3.org/2000/svg" xmlns:xlink="http://www.w3.org/1999/xlink" version="1.1" width="1080" height="1080" viewBox="0.14 -2.03 1080 1080" xml:space="preserve">
<desc>Created with Fabric.js 5.2.4</desc>
<defs>
</defs>
<g transform="matrix(1 0 0 1 540 540)" id="42580f07-2d87-49b3-81e2-2510e493cde4"  >
<rect style="stroke: none; stroke-width: 1; stroke-dasharray: none; stroke-linecap: butt; stroke-dashoffset: 0; stroke-linejoin: miter; stroke-miterlimit: 4; fill: rgb(255,255,255); fill-rule: nonzero; opacity: 1; visibility: hidden;" vector-effect="non-scaling-stroke"  x="-540" y="-540" rx="0" ry="0" width="1080" height="1080" />
</g>
<g transform="matrix(1 0 0 1 540 540)" id="de1185d7-1d05-4c71-ab36-7fdcb39e84b4"  >
</g>
<g transform="matrix(1.03 0 0 1.03 540 540)"  >
<path style="stroke: rgb(250,248,246); stroke-width: 1; stroke-dasharray: none; stroke-linecap: butt; stroke-dashoffset: 0; stroke-linejoin: miter; stroke-miterlimit: 4; fill: rgb(250,248,246); fill-rule: nonzero; opacity: 1;"  transform=" translate(-523.55, -1.8)" d="M 1047.1 0 C 557 0 8.9 0 0 0 L 0 1.6 C 0 1.6 0.6 0.10000000000000009 2.7 1.3 C 3.9 2 6.1 4.1 8.3 3.5 C 9.200000000000001 3.3 9.8 1.6 9.8 1.6 C 9.8 1.6 10.4 0.10000000000000009 12.5 1.3 C 13.8 2 16 4.1 18.2 3.5 C 19.099999999999998 3.3 19.7 1.6 19.7 1.6 C 19.7 1.6 20.3 0.10000000000000009 22.4 1.3 C 23.6 2 25.9 4.1 28 3.5 C 28.9 3.3 29.5 1.6 29.5 1.6 C 29.5 1.6 30.1 0.10000000000000009 32.2 1.3 C 33.400000000000006 2 35.7 4.1 37.800000000000004 3.5 C 38.7 3.3 39.300000000000004 1.6 39.300000000000004 1.6 C 39.300000000000004 1.6 39.900000000000006 0.10000000000000009 42.00000000000001 1.3 C 43.20000000000001 2 45.50000000000001 4.1 47.60000000000001 3.5 C 48.50000000000001 3.3 49.10000000000001 1.6 49.10000000000001 1.6 C 49.10000000000001 1.6 49.70000000000001 0.10000000000000009 51.80000000000001 1.3 C 53.000000000000014 2 55.30000000000001 4.1 57.40000000000001 3.5 C 58.30000000000001 3.3 58.90000000000001 1.6 58.90000000000001 1.6 C 58.90000000000001 1.6 59.500000000000014 0.10000000000000009 61.600000000000016 1.3 C 63 2 65.3 4.1 67.4 3.5 C 68.3 3.3 69 1.6 69 1.6 C 69 1.6 69.6 0.10000000000000009 71.7 1.3 C 72.9 2 75.2 4.1 77.3 3.5 C 78.2 3.3 78.8 1.6 78.8 1.6 C 78.8 1.6 79.39999999999999 0.10000000000000009 81.5 1.3 C 82.7 2 85 4.1 87.1 3.5 C 88 3.3 88.6 1.6 88.6 1.6 C 88.6 1.6 89.19999999999999 0.10000000000000009 91.3 1.3 C 92.6 2 94.8 4.1 97 3.5 C 97.9 3.3 98.5 1.6 98.5 1.6 C 98.5 1.6 99.1 0.10000000000000009 101.2 1.3 C 102.4 2 104.7 4.1 106.8 3.5 C 107.7 3.3 108.3 1.6 108.3 1.6 C 108.3 1.6 108.89999999999999 0.10000000000000009 111 1.3 C 112.2 2 114.5 4.1 116.6 3.5 C 117.5 3.3 118.1 1.6 118.1 1.6 C 118.1 1.6 118.69999999999999 0.10000000000000009 120.8 1.3 C 122 2 124.3 4.1 126.39999999999999 3.5 C 127.3 3.3 127.89999999999999 1.6 127.89999999999999 1.6 C 127.89999999999999 1.6 128.5 0.10000000000000009 130.6 1.3 C 131.79999999999998 2 134.1 4.1 136.2 3.5 C 137.1 3.3 137.7 1.6 137.7 1.6 C 137.7 1.6 138.29999999999998 0.10000000000000009 140.39999999999998 1.3 C 141.59999999999997 2 143.89999999999998 4.1 145.99999999999997 3.5 C 146.89999999999998 3.3 147.49999999999997 1.6 147.49999999999997 1.6 C 147.49999999999997 1.6 148.09999999999997 0.10000000000000009 150.19999999999996 1.3 C 151.39999999999995 2 153.69999999999996 4.1 155.79999999999995 3.5 C 156.69999999999996 3.3 157.29999999999995 1.6 157.29999999999995 1.6 C 157.29999999999995 1.6 157.89999999999995 0.10000000000000009 159.99999999999994 1.3 C 161.19999999999993 2 163.49999999999994 4.1 165.59999999999994 3.5 C 166.49999999999994 3.3 167.09999999999994 1.6 167.09999999999994 1.6 C 167.09999999999994 1.6 167.69999999999993 0.10000000000000009 169.79999999999993 1.3 C 170.99999999999991 2 173.29999999999993 4.1 175.39999999999992 3.5 C 176.29999999999993 3.3 176.89999999999992 1.6 176.89999999999992 1.6 C 176.89999999999992 1.6 177.49999999999991 0.10000000000000009 179.5999999999999 1.3 C 180.7999999999999 2 183.0999999999999 4.1 185.1999999999999 3.5 C 186.0999999999999 3.3 186.6999999999999 1.6 186.6999999999999 1.6 C 186.6999999999999 1.6 187.2999999999999 0.10000000000000009 189.3999999999999 1.3 C 190.59999999999988 2 192.8999999999999 4.1 194.9999999999999 3.5 C 195.8999999999999 3.3 196.4999999999999 1.6 196.4999999999999 1.6 C 196.4999999999999 1.6 197.09999999999988 0.10000000000000009 199.19999999999987 1.3 C 200.39999999999986 2 202.69999999999987 4.1 204.79999999999987 3.5 C 205.69999999999987 3.3 206.29999999999987 1.6 206.29999999999987 1.6 C 206.29999999999987 1.6 206.89999999999986 0.10000000000000009 208.99999999999986 1.3 C 210.19999999999985 2 212.49999999999986 4.1 214.59999999999985 3.5 C 215.49999999999986 3.3 216.09999999999985 1.6 216.09999999999985 1.6 C 216.09999999999985 1.6 216.69999999999985 0.10000000000000009 218.79999999999984 1.3 C 219.99999999999983 2 222.29999999999984 4.1 224.39999999999984 3.5 C 225.29999999999984 3.3 225.89999999999984 1.6 225.89999999999984 1.6 C 225.89999999999984 1.6 226.49999999999983 0.10000000000000009 228.59999999999982 1.3 C 229.7999999999998 2 232.09999999999982 4.1 234.19999999999982 3.5 C 235.09999999999982 3.3 235.69999999999982 1.6 235.69999999999982 1.6 C 235.69999999999982 1.6 236.2999999999998 0.10000000000000009 238.3999999999998 1.3 C 239.5999999999998 2 241.8999999999998 4.1 243.9999999999998 3.5 C 244.8999999999998 3.3 245.4999999999998 1.6 245.4999999999998 1.6 C 245.4999999999998 1.6 246.0999999999998 0.10000000000000009 248.1999999999998 1.3 C 249.39999999999978 2 251.6999999999998 4.1 253.79999999999978 3.5 C 254.6999999999998 3.3 255.29999999999978 1.6 255.29999999999978 1.6 C 255.29999999999978 1.6 255.89999999999978 0.10000000000000009 257.9999999999998 1.3 C 259.19999999999976 2 261.4999999999998 4.1 263.5999999999998 3.5 C 264.4999999999998 3.3 265.0999999999998 1.6 265.0999999999998 1.6 C 265.0999999999998 1.6 265.6999999999998 0.10000000000000009 267.7999999999998 1.3 C 268.9999999999998 2 271.2999999999998 4.1 273.3999999999998 3.5 C 274.2999999999998 3.3 274.8999999999998 1.6 274.8999999999998 1.6 C 274.8999999999998 1.6 275.49999999999983 0.10000000000000009 277.5999999999998 1.3 C 278.7999999999998 2 281.0999999999998 4.1 283.1999999999998 3.5 C 284.0999999999998 3.3 284.6999999999998 1.6 284.6999999999998 1.6 C 284.6999999999998 1.6 285.29999999999984 0.10000000000000009 287.3999999999998 1.3 C 288.5999999999998 2 290.8999999999998 4.1 292.99999999999983 3.5 C 293.8999999999998 3.3 294.49999999999983 1.6 294.49999999999983 1.6 C 294.49999999999983 1.6 295.09999999999985 0.10000000000000009 297.1999999999998 1.3 C 298.3999999999998 2 300.6999999999998 4.1 302.79999999999984 3.5 C 303.6999999999998 3.3 304.29999999999984 1.6 304.29999999999984 1.6 C 304.29999999999984 1.6 304.89999999999986 0.10000000000000009 306.99999999999983 1.3 C 308.1999999999998 2 310.49999999999983 4.1 312.59999999999985 3.5 C 313.49999999999983 3.3 314.09999999999985 1.6 314.09999999999985 1.6 C 314.09999999999985 1.6 314.6999999999999 0.10000000000000009 316.79999999999984 1.3 C 317.99999999999983 2 320.29999999999984 4.1 322.39999999999986 3.5 C 323.29999999999984 3.3 323.89999999999986 1.6 323.89999999999986 1.6 C 323.89999999999986 1.6 324.4999999999999 0.10000000000000009 326.59999999999985 1.3 C 327.79999999999984 2 330.09999999999985 4.1 332.1999999999999 3.5 C 333.09999999999985 3.3 333.6999999999999 1.6 333.6999999999999 1.6 C 333.6999999999999 1.6 334.2999999999999 0.10000000000000009 336.39999999999986 1.3 C 337.59999999999985 2 339.89999999999986 4.1 341.9999999999999 3.5 C 342.89999999999986 3.3 343.4999999999999 1.6 343.4999999999999 1.6 C 343.4999999999999 1.6 344.0999999999999 0.10000000000000009 346.1999999999999 1.3 C 347.39999999999986 2 349.6999999999999 4.1 351.7999999999999 3.5 C 352.6999999999999 3.3 353.2999999999999 1.6 353.2999999999999 1.6 C 353.2999999999999 1.6 353.8999999999999 0.10000000000000009 355.9999999999999 1.3 C 357.1999999999999 2 359.4999999999999 4.1 361.5999999999999 3.5 C 362.4999999999999 3.3 363.0999999999999 1.6 363.0999999999999 1.6 C 363.0999999999999 1.6 363.69999999999993 0.10000000000000009 365.7999999999999 1.3 C 366.9999999999999 2 369.2999999999999 4.1 371.3999999999999 3.5 C 372.2999999999999 3.3 372.8999999999999 1.6 372.8999999999999 1.6 C 372.8999999999999 1.6 373.49999999999994 0.10000000000000009 375.5999999999999 1.3 C 376.7999999999999 2 379.0999999999999 4.1 381.19999999999993 3.5 C 382.0999999999999 3.3 382.69999999999993 1.6 382.69999999999993 1.6 C 382.69999999999993 1.6 383.29999999999995 0.10000000000000009 385.3999999999999 1.3 C 386.5999999999999 2 388.8999999999999 4.1 390.99999999999994 3.5 C 391.8999999999999 3.3 392.49999999999994 1.6 392.49999999999994 1.6 C 392.49999999999994 1.6 393.09999999999997 0.10000000000000009 395.19999999999993 1.3 C 396.3999999999999 2 398.69999999999993 4.1 400.79999999999995 3.5 C 401.69999999999993 3.3 402.29999999999995 1.6 402.29999999999995 1.6 C 402.29999999999995 1.6 402.9 0.10000000000000009 404.99999999999994 1.3 C 406.19999999999993 2 408.49999999999994 4.1 410.59999999999997 3.5 C 411.49999999999994 3.3 412.09999999999997 1.6 412.09999999999997 1.6 C 412.09999999999997 1.6 412.7 0.10000000000000009 414.79999999999995 1.3 C 415.99999999999994 2 418.29999999999995 4.1 420.4 3.5 C 421.29999999999995 3.3 421.9 1.6 421.9 1.6 C 421.9 1.6 422.5 0.10000000000000009 424.59999999999997 1.3 C 425.79999999999995 2 428.09999999999997 4.1 430.2 3.5 C 431.09999999999997 3.3 431.7 1.6 431.7 1.6 C 431.7 1.6 432.3 0.10000000000000009 434.4 1.3 C 435.59999999999997 2 437.9 4.1 440 3.5 C 440.9 3.3 441.5 1.6 441.5 1.6 C 441.5 1.6 442.1 0.10000000000000009 444.2 1.3 C 445.4 2 447.7 4.1 449.8 3.5 C 450.7 3.3 451.3 1.6 451.3 1.6 C 451.3 1.6 451.90000000000003 0.10000000000000009 454 1.3 C 455.2 2 457.5 4.1 459.6 3.5 C 460.5 3.3 461.1 1.6 461.1 1.6 C 461.1 1.6 461.70000000000005 0.10000000000000009 463.8 1.3 C 465 2 467.3 4.1 469.40000000000003 3.5 C 470.3 3.3 470.90000000000003 1.6 470.90000000000003 1.6 C 470.90000000000003 1.6 471.50000000000006 0.10000000000000009 473.6 1.3 C 474.8 2 477.1 4.1 479.20000000000005 3.5 C 480.1 3.3 480.70000000000005 1.6 480.70000000000005 1.6 C 480.70000000000005 1.6 481.30000000000007 0.10000000000000009 483.40000000000003 1.3 C 484.6 2 486.90000000000003 4.1 489.00000000000006 3.5 C 489.90000000000003 3.3 490.50000000000006 1.6 490.50000000000006 1.6 C 490.50000000000006 1.6 491.1000000000001 0.10000000000000009 493.20000000000005 1.3 C 494.40000000000003 2 496.70000000000005 4.1 498.80000000000007 3.5 C 499.70000000000005 3.3 500.30000000000007 1.6 500.30000000000007 1.6 C 500.30000000000007 1.6 500.9000000000001 0.10000000000000009 503.00000000000006 1.3 C 504.20000000000005 2 506.50000000000006 4.1 508.6000000000001 3.5 C 509.50000000000006 3.3 510.1000000000001 1.6 510.1000000000001 1.6 C 510.1000000000001 1.6 510.7000000000001 0.10000000000000009 512.8000000000001 1.3 C 514.0000000000001 2 516.3000000000001 4.1 518.4000000000001 3.5 C 519.3000000000001 3.3 519.9000000000001 1.6 519.9000000000001 1.6 C 519.9000000000001 1.6 520.5000000000001 0.10000000000000009 522.6000000000001 1.3 C 523.8000000000002 2 526.1000000000001 4.1 528.2000000000002 3.5 C 529.1000000000001 3.3 529.7000000000002 1.6 529.7000000000002 1.6 C 529.7000000000002 1.6 530.3000000000002 0.10000000000000009 532.4000000000002 1.3 C 533.6000000000003 2 535.9000000000002 4.1 538.0000000000002 3.5 C 538.9000000000002 3.3 539.5000000000002 1.6 539.5000000000002 1.6 C 539.5000000000002 1.6 540.1000000000003 0.10000000000000009 542.2000000000003 1.3 C 543.4000000000003 2 545.7000000000003 4.1 547.8000000000003 3.5 C 548.7000000000003 3.3 549.3000000000003 1.6 549.3000000000003 1.6 C 549.3000000000003 1.6 549.9000000000003 0.10000000000000009 552.0000000000003 1.3 C 553.2000000000004 2 555.5000000000003 4.1 557.6000000000004 3.5 C 558.5000000000003 3.3 559.1000000000004 1.6 559.1000000000004 1.6 C 559.1000000000004 1.6 559.7000000000004 0.10000000000000009 561.8000000000004 1.3 C 563.0000000000005 2 565.3000000000004 4.1 567.4000000000004 3.5 C 568.3000000000004 3.3 568.9000000000004 1.6 568.9000000000004 1.6 C 568.9000000000004 1.6 569.5000000000005 0.10000000000000009 571.6000000000005 1.3 C 572.8000000000005 2 575.1000000000005 4.1 577.2000000000005 3.5 C 578.1000000000005 3.3 578.7000000000005 1.6 578.7000000000005 1.6 C 578.7000000000005 1.6 579.3000000000005 0.10000000000000009 581.4000000000005 1.3 C 582.6000000000006 2 584.9000000000005 4.1 587.0000000000006 3.5 C 587.9000000000005 3.3 588.5000000000006 1.6 588.5000000000006 1.6 C 588.5000000000006 1.6 589.1000000000006 0.10000000000000009 591.2000000000006 1.3 C 592.4000000000007 2 594.7000000000006 4.1 596.8000000000006 3.5 C 597.7000000000006 3.3 598.3000000000006 1.6 598.3000000000006 1.6 C 598.3000000000006 1.6 598.9000000000007 0.10000000000000009 601.0000000000007 1.3 C 602.2000000000007 2 604.5000000000007 4.1 606.6000000000007 3.5 C 607.5000000000007 3.3 608.1000000000007 1.6 608.1000000000007 1.6 C 608.1000000000007 1.6 608.7000000000007 0.10000000000000009 610.8000000000008 1.3 C 612.0000000000008 2 614.3000000000008 4.1 616.4000000000008 3.5 C 617.3000000000008 3.3 617.9000000000008 1.6 617.9000000000008 1.6 C 617.9000000000008 1.6 618.5000000000008 0.10000000000000009 620.6000000000008 1.3 C 621.8000000000009 2 624.1000000000008 4.1 626.2000000000008 3.5 C 627.1000000000008 3.3 627.7000000000008 1.6 627.7000000000008 1.6 C 627.7000000000008 1.6 628.3000000000009 0.10000000000000009 630.4000000000009 1.3 C 631.6000000000009 2 633.9000000000009 4.1 636.0000000000009 3.5 C 636.9000000000009 3.3 637.5000000000009 1.6 637.5000000000009 1.6 C 637.5000000000009 1.6 638.1000000000009 0.10000000000000009 640.200000000001 1.3 C 641.400000000001 2 643.700000000001 4.1 645.800000000001 3.5 C 646.700000000001 3.3 647.300000000001 1.6 647.300000000001 1.6 C 647.300000000001 1.6 647.900000000001 0.10000000000000009 650.000000000001 1.3 C 651.2000000000011 2 653.500000000001 4.1 655.600000000001 3.5 C 656.500000000001 3.3 657.100000000001 1.6 657.100000000001 1.6 C 657.100000000001 1.6 657.7000000000011 0.10000000000000009 659.8000000000011 1.3 C 661.0000000000011 2 663.3000000000011 4.1 665.4000000000011 3.5 C 666.3000000000011 3.3 666.9000000000011 1.6 666.9000000000011 1.6 C 666.9000000000011 1.6 667.5000000000011 0.10000000000000009 669.6000000000012 1.3 C 670.8000000000012 2 673.1000000000012 4.1 675.2000000000012 3.5 C 676.1000000000012 3.3 676.7000000000012 1.6 676.7000000000012 1.6 C 676.7000000000012 1.6 677.3000000000012 0.10000000000000009 679.4000000000012 1.3 C 680.6000000000013 2 682.9000000000012 4.1 685.0000000000013 3.5 C 685.9000000000012 3.3 686.5000000000013 1.6 686.5000000000013 1.6 C 686.5000000000013 1.6 687.1000000000013 0.10000000000000009 689.2000000000013 1.3 C 690.4000000000013 2 692.7000000000013 4.1 694.8000000000013 3.5 C 695.7000000000013 3.3 696.3000000000013 1.6 696.3000000000013 1.6 C 696.3000000000013 1.6 696.9000000000013 0.10000000000000009 699.0000000000014 1.3 C 700.2000000000014 2 702.5000000000014 4.1 704.6000000000014 3.5 C 705.5000000000014 3.3 706.1000000000014 1.6 706.1000000000014 1.6 C 706.1000000000014 1.6 706.7000000000014 0.10000000000000009 708.8000000000014 1.3 C 710.0000000000015 2 712.3000000000014 4.1 714.4000000000015 3.5 C 715.3000000000014 3.3 715.9000000000015 1.6 715.9000000000015 1.6 C 715.9000000000015 1.6 716.5000000000015 0.10000000000000009 718.6000000000015 1.3 C 719.8000000000015 2 722.1000000000015 4.1 724.2000000000015 3.5 C 725.1000000000015 3.3 725.7000000000015 1.6 725.7000000000015 1.6 C 725.7000000000015 1.6 726.3000000000015 0.10000000000000009 728.4000000000016 1.3 C 729.6000000000016 2 731.9000000000016 4.1 734.0000000000016 3.5 C 734.9000000000016 3.3 735.5000000000016 1.6 735.5000000000016 1.6 C 735.5000000000016 1.6 736.1000000000016 0.10000000000000009 738.2000000000016 1.3 C 739.4000000000017 2 741.7000000000016 4.1 743.8000000000017 3.5 C 744.7000000000016 3.3 745.3000000000017 1.6 745.3000000000017 1.6 C 745.3000000000017 1.6 745.9000000000017 0.10000000000000009 748.0000000000017 1.3 C 749.2000000000018 2 751.5000000000017 4.1 753.6000000000017 3.5 C 754.5000000000017 3.3 755.1000000000017 1.6 755.1000000000017 1.6 C 755.1000000000017 1.6 755.7000000000018 0.10000000000000009 757.8000000000018 1.3 C 759.0000000000018 2 761.3000000000018 4.1 763.4000000000018 3.5 C 764.3000000000018 3.3 764.9000000000018 1.6 764.9000000000018 1.6 C 764.9000000000018 1.6 765.5000000000018 0.10000000000000009 767.6000000000018 1.3 C 768.8000000000019 2 771.1000000000018 4.1 773.2000000000019 3.5 C 774.1000000000018 3.3 774.7000000000019 1.6 774.7000000000019 1.6 C 774.7000000000019 1.6 775.3000000000019 0.10000000000000009 777.4000000000019 1.3 C 778.600000000002 2 780.9000000000019 4.1 783.0000000000019 3.5 C 783.9000000000019 3.3 784.5000000000019 1.6 784.5000000000019 1.6 C 784.5000000000019 1.6 785.100000000002 0.10000000000000009 787.200000000002 1.3 C 788.400000000002 2 790.700000000002 4.1 792.800000000002 3.5 C 793.700000000002 3.3 794.300000000002 1.6 794.300000000002 1.6 C 794.300000000002 1.6 794.900000000002 0.10000000000000009 797.000000000002 1.3 C 798.2000000000021 2 800.500000000002 4.1 802.6000000000021 3.5 C 803.500000000002 3.3 804.1000000000021 1.6 804.1000000000021 1.6 C 804.1000000000021 1.6 804.7000000000021 0.10000000000000009 806.8000000000021 1.3 C 808.0000000000022 2 810.3000000000021 4.1 812.4000000000021 3.5 C 813.3000000000021 3.3 813.9000000000021 1.6 813.9000000000021 1.6 C 813.9000000000021 1.6 814.5000000000022 0.10000000000000009 816.6000000000022 1.3 C 817.8000000000022 2 820.1000000000022 4.1 822.2000000000022 3.5 C 823.1000000000022 3.3 823.7000000000022 1.6 823.7000000000022 1.6 C 823.7000000000022 1.6 824.3000000000022 0.10000000000000009 826.4000000000023 1.3 C 827.6000000000023 2 829.9000000000023 4.1 832.0000000000023 3.5 C 832.9000000000023 3.3 833.5000000000023 1.6 833.5000000000023 1.6 C 833.5000000000023 1.6 834.1000000000023 0.10000000000000009 836.2000000000023 1.3 C 837.4000000000024 2 839.7000000000023 4.1 841.8000000000023 3.5 C 842.7000000000023 3.3 843.3000000000023 1.6 843.3000000000023 1.6 C 843.3000000000023 1.6 843.9000000000024 0.10000000000000009 846.0000000000024 1.3 C 847.2000000000024 2 849.5000000000024 4.1 851.6000000000024 3.5 C 852.5000000000024 3.3 853.1000000000024 1.6 853.1000000000024 1.6 C 853.1000000000024 1.6 853.7000000000024 0.10000000000000009 855.8000000000025 1.3 C 857.0000000000025 2 859.3000000000025 4.1 861.4000000000025 3.5 C 862.3000000000025 3.3 862.9000000000025 1.6 862.9000000000025 1.6 C 862.9000000000025 1.6 863.5000000000025 0.10000000000000009 865.6000000000025 1.3 C 866.8000000000026 2 869.1000000000025 4.1 871.2000000000025 3.5 C 872.1000000000025 3.3 872.7000000000025 1.6 872.7000000000025 1.6 C 872.7000000000025 1.6 873.3000000000026 0.10000000000000009 875.4000000000026 1.3 C 876.6000000000026 2 878.9000000000026 4.1 881.0000000000026 3.5 C 881.9000000000026 3.3 882.5000000000026 1.6 882.5000000000026 1.6 C 882.5000000000026 1.6 883.1000000000026 0.10000000000000009 885.2000000000027 1.3 C 886.4000000000027 2 888.7000000000027 4.1 890.8000000000027 3.5 C 891.7000000000027 3.3 892.3000000000027 1.6 892.3000000000027 1.6 C 892.3000000000027 1.6 892.9000000000027 0.10000000000000009 895.0000000000027 1.3 C 896.2000000000028 2 898.5000000000027 4.1 900.6000000000028 3.5 C 901.5000000000027 3.3 902.1000000000028 1.6 902.1000000000028 1.6 C 902.1000000000028 1.6 902.7000000000028 0.10000000000000009 904.8000000000028 1.3 C 906.0000000000028 2 908.3000000000028 4.1 910.4000000000028 3.5 C 911.3000000000028 3.3 911.9000000000028 1.6 911.9000000000028 1.6 C 911.9000000000028 1.6 912.5000000000028 0.10000000000000009 914.6000000000029 1.3 C 915.8000000000029 2 918.1000000000029 4.1 920.2000000000029 3.5 C 921.1000000000029 3.3 921.7000000000029 1.6 921.7000000000029 1.6 C 921.7000000000029 1.6 922.3000000000029 0.10000000000000009 924.4000000000029 1.3 C 925.600000000003 2 927.9000000000029 4.1 930.000000000003 3.5 C 930.9000000000029 3.3 931.500000000003 1.6 931.500000000003 1.6 C 931.500000000003 1.6 932.100000000003 0.10000000000000009 934.200000000003 1.3 C 935.400000000003 2 937.700000000003 4.1 939.800000000003 3.5 C 940.700000000003 3.3 941.300000000003 1.6 941.300000000003 1.6 C 941.300000000003 1.6 941.900000000003 0.10000000000000009 944.0000000000031 1.3 C 945.2000000000031 2 947.5000000000031 4.1 949.6000000000031 3.5 C 950.5000000000031 3.3 951.1000000000031 1.6 951.1000000000031 1.6 C 951.1000000000031 1.6 951.7000000000031 0.10000000000000009 953.8000000000031 1.3 C 955.0000000000032 2 957.3000000000031 4.1 959.4000000000032 3.5 C 960.3000000000031 3.3 960.9000000000032 1.6 960.9000000000032 1.6 C 960.9000000000032 1.6 961.5000000000032 0.10000000000000009 963.6000000000032 1.3 C 964.8000000000033 2 967.1000000000032 4.1 969.2000000000032 3.5 C 970.1000000000032 3.3 970.7000000000032 1.6 970.7000000000032 1.6 C 970.7000000000032 1.6 971.3000000000033 0.10000000000000009 973.4000000000033 1.3 C 974.6000000000033 2 976.9000000000033 4.1 979.0000000000033 3.5 C 979.9000000000033 3.3 980.5000000000033 1.6 980.5000000000033 1.6 C 980.5000000000033 1.6 981.1000000000033 0.10000000000000009 983.2000000000033 1.3 C 984.4000000000034 2 986.7000000000033 4.1 988.8000000000034 3.5 C 989.7000000000033 3.3 990.3000000000034 1.6 990.3000000000034 1.6 C 990.3000000000034 1.6 990.9000000000034 0.10000000000000009 993.0000000000034 1.3 C 994.2000000000035 2 996.5000000000034 4.1 998.6000000000034 3.5 C 999.5000000000034 3.3 1000.1000000000034 1.6 1000.1000000000034 1.6 C 1000.1000000000034 1.6 1000.7000000000035 0.10000000000000009 1002.8000000000035 1.3 C 1004.0000000000035 2 1006.3000000000035 4.1 1008.4000000000035 3.5 C 1009.3000000000035 3.3 1009.9000000000035 1.6 1009.9000000000035 1.6 C 1009.9000000000035 1.6 1010.5000000000035 0.10000000000000009 1012.6000000000035 1.3 C 1013.8000000000036 2 1016.1000000000035 4.1 1018.2000000000036 3.5 C 1019.1000000000035 3.3 1019.7000000000036 1.6 1019.7000000000036 1.6 C 1019.7000000000036 1.6 1020.3000000000036 0.10000000000000009 1022.4000000000036 1.3 C 1023.6000000000037 2 1025.9000000000037 4.1 1028.0000000000036 3.5 C 1028.9000000000037 3.3 1029.5000000000036 1.6 1029.5000000000036 1.6 C 1029.5000000000036 1.6 1030.1000000000035 0.10000000000000009 1032.2000000000037 1.3 C 1033.4000000000037 2 1035.7000000000037 4.1 1037.8000000000036 3.5 C 1038.7000000000037 3.3 1039.3000000000036 1.6 1039.3000000000036 1.6 C 1039.3000000000036 1.6 1039.9000000000035 0.10000000000000009 1041.9000000000035 1.2000000000000002 L 1041.9000000000035 0 z M 2.5 1.2 C 2.5 1.2 2.5 1.2 2.5 1.2 C 2.5 1.2 2.5 1.2 2.5 1.2 z M 2.7 1.4 C 2.8000000000000003 1.4 2.8000000000000003 1.5 2.8000000000000003 1.5 C 2.8 1.4 2.8 1.4 2.7 1.4 z" stroke-linecap="round" />
</g>
<g transform="matrix(NaN NaN NaN NaN 0 0)"  >
<g style=""   >
</g>
</g>
<g transform="matrix(NaN NaN NaN NaN 0 0)"  >
<g style=""   >
</g>
</g>
</svg>